<svg fill="#000000" height="200px" width="200px" version="1.1" id="Capa_1" xmlns="http://www.w3.org/2000/svg" xmlns:xlink="http://www.w3.org/1999/xlink" viewBox="-51.1 -51.1 613.20 613.20" xml:space="preserve" stroke="#000000" transform="rotate(0)"><g id="SVGRepo_bgCarrier" stroke-width="0" transform="translate(0,0), scale(1)"><rect x="-51.1" y="-51.1" width="613.20" height="613.20" rx="306.6" fill="#7eec91" strokewidth="0"></rect></g><g id="SVGRepo_tracerCarrier" stroke-linecap="round" stroke-linejoin="round" stroke="#4be28c" stroke-width="51.1"> <g> <path d="M436.166,74.834C387.908,26.577,323.747,0,255.5,0S123.092,26.577,74.834,74.834C26.577,123.092,0,187.253,0,255.5 c0,49.574,14.036,96.986,40.206,137.719c0.407,1.733,1.414,3.231,2.792,4.269c9.229,13.75,19.864,26.705,31.837,38.678 C123.092,484.423,187.253,511,255.5,511s132.408-26.577,180.666-74.834C484.423,387.908,511,323.747,511,255.5 S484.423,123.092,436.166,74.834z M85.441,85.441C130.865,40.016,191.26,15,255.5,15s124.635,25.016,170.059,70.441 C470.984,130.865,496,191.26,496,255.5c0,5.532-0.199,11.032-0.567,16.5H471.5c-3.069,0-10.464-2.097-25.508-16.139 c-11.081-10.342-22.934-23.934-33.393-35.927c-5.605-6.427-10.899-12.498-15.616-17.552c-16.508-17.687-32.718-6.697-42.403-0.131 c-3.731,2.529-7.929,5.375-10.581,5.714c-1.647-2.11-3.277-4.295-4.928-6.511c-6.8-9.132-13.832-18.574-23.768-24.419 c-6.068-3.569-13.977-10.489-21.625-17.181C279.05,147.054,266.417,136,255.5,136c-9.357,0-21.689,10.275-44.024,33.009 c-11.903,4.527-24.338,5.96-36.378,7.339c-13.295,1.522-25.854,2.959-35.456,8.721c-3.367,2.021-7.29,6.674-15.841,17.006 C103.575,226.512,65.928,272,31.5,272H15.567C15.199,266.532,15,261.032,15,255.5C15,191.26,40.016,130.865,85.441,85.441z M431.5,272c-16.695,0-26.958-10.714-38.84-23.12c-8.704-9.087-17.705-18.484-30.006-24.185c-2.783-1.29-5.327-2.985-7.719-4.964 c2.768-1.474,5.435-3.281,8.062-5.063c11.312-7.669,15.905-9.674,23.02-2.05c4.544,4.868,9.757,10.847,15.277,17.176 c14.817,16.99,28.216,31.877,40.326,42.207H431.5z M147.507,289.161c8.578-9.719,15.989-18.116,27.899-18.16 c0.402,0.156,4.579,2.104,10.654,16.517c1.242,2.947,2.329,5.871,3.235,8.483h-48.005 C143.459,293.747,145.513,291.42,147.507,289.161z M195.212,272c-6.003-10.744-12.494-16-19.712-16 c-14.621,0-24.468,7.52-32.656,16h-21.999c9.837-4.589,22.651-11.742,28.72-20.089c2.306-3.171,4.13-6.592,6.062-10.214 c3.848-7.218,7.828-14.681,15.929-19.889l3.341-2.146c7.839-5.03,12.57-8.066,20.962-14.06c3.368-2.406,8.667-7.85,17.743-17.264 c7.889-8.183,16.83-17.458,25.1-24.99c12.115-11.034,16.253-12.223,16.904-12.347c5.358,0.159,19.088,12.173,28.194,20.141 c8.544,7.477,16.615,14.539,23.896,18.822c7.322,4.307,13.161,12.148,19.343,20.449c8,10.743,16.272,21.851,29.306,27.891 c9.734,4.511,17.382,12.496,25.48,20.95c4.076,4.256,8.334,8.695,13.022,12.745H195.212z M75.839,270.788 c24.348-16.662,45.703-42.459,59.517-59.15c4.84-5.849,10.322-12.473,12.071-13.748c6.819-4.057,17.275-5.255,29.376-6.64 c4.74-0.542,9.714-1.113,14.816-1.902c-1.963,1.923-3.547,3.382-4.479,4.048c-8.088,5.777-12.441,8.571-20.345,13.642l-3.352,2.152 c-11.388,7.321-16.747,17.372-21.054,25.449c-1.679,3.148-3.264,6.122-4.956,8.449C129.857,253.508,99.016,266.77,75.839,270.788z M425.559,425.559C380.135,470.984,319.74,496,255.5,496s-124.635-25.016-170.059-70.441c-8.367-8.367-16.036-17.246-22.99-26.559 H127.5c4.142,0,7.5-3.358,7.5-7.5s-3.358-7.5-7.5-7.5H52.107c-18.609-29.329-30.548-62.294-35.061-97h112.069 c-5.309,5.275-10.717,9-17.615,9c-4.142,0-7.5,3.358-7.5,7.5s3.358,7.5,7.5,7.5h87.972c0.008,0,0.016,0.002,0.024,0.002 c0.01,0,0.02-0.002,0.03-0.002h7.975c4.142,0,7.5-3.358,7.5-7.5s-3.358-7.5-7.5-7.5h-2.4c-0.784-2.484-1.83-5.612-3.105-9h291.959 c-2.936,22.578-9.015,44.418-18.033,65H383.5c-4.142,0-7.5,3.358-7.5,7.5s3.358,7.5,7.5,7.5h85.206 C457.526,388.316,443.065,408.053,425.559,425.559z"></path> <path d="M95.5,127h104c4.142,0,7.5-3.358,7.5-7.5c0-19.575-15.925-35.5-35.5-35.5c-1.388,0-2.804,0.098-4.27,0.298 C158.476,76.337,147.359,72,135.5,72C109.309,72,88,93.308,88,119.5C88,123.642,91.358,127,95.5,127z M135.5,87 c9.053,0,17.492,3.73,23.764,10.503c1.856,2.006,4.656,2.842,7.31,2.183C168.46,99.218,170.025,99,171.5,99 c8.658,0,16.08,5.395,19.08,13h-86.706C107.268,97.683,120.16,87,135.5,87z"></path> <path d="M223.5,127h64h16h112c4.142,0,7.5-3.358,7.5-7.5c0-17.369-14.131-31.5-31.5-31.5c-1.387,0-2.789,0.108-4.222,0.327 C378.299,78.022,365.268,72,351.5,72c-11.924,0-23.291,4.524-31.956,12.428C310.868,76.454,299.583,72,287.5,72 c-11.859,0-22.976,4.337-31.73,12.298C254.304,84.098,252.888,84,251.5,84c-19.575,0-35.5,15.925-35.5,35.5 C216,123.642,219.358,127,223.5,127z M351.5,87c10.599,0,20.567,5.233,26.665,13.998c1.875,2.694,5.282,3.858,8.413,2.87 c1.877-0.592,3.441-0.868,4.923-0.868c6.399,0,11.959,3.662,14.695,9H303.5h-6.695c2.735-5.338,8.295-9,14.695-9 c1.482,0,3.046,0.276,4.923,0.868c3.13,0.987,6.539-0.176,8.413-2.87C330.933,92.233,340.901,87,351.5,87z M251.5,99 c1.475,0,3.04,0.218,4.926,0.686c2.652,0.658,5.453-0.178,7.31-2.183C270.008,90.73,278.447,87,287.5,87 c4.707,0,9.234,0.996,13.361,2.853c-9.846,3.544-17.429,11.861-19.951,22.147H232.42C235.42,104.395,242.842,99,251.5,99z"></path> <path d="M215.5,335h64c4.142,0,7.5-3.358,7.5-7.5s-3.358-7.5-7.5-7.5h-64c-4.142,0-7.5,3.358-7.5,7.5S211.358,335,215.5,335z"></path> <path d="M303.5,352h-120c-4.142,0-7.5,3.358-7.5,7.5s3.358,7.5,7.5,7.5h120c4.142,0,7.5-3.358,7.5-7.5S307.642,352,303.5,352z"></path> <path d="M359.5,352h-32c-4.142,0-7.5,3.358-7.5,7.5s3.358,7.5,7.5,7.5h32c4.142,0,7.5-3.358,7.5-7.5S363.642,352,359.5,352z"></path> <path d="M159.5,367c4.142,0,7.5-3.358,7.5-7.5s-3.358-7.5-7.5-7.5h-24c-4.142,0-7.5,3.358-7.5,7.5s3.358,7.5,7.5,7.5H159.5z"></path> <path d="M335,327.5c0-4.142-3.358-7.5-7.5-7.5h-16c-4.142,0-7.5,3.358-7.5,7.5s3.358,7.5,7.5,7.5h16 C331.642,335,335,331.642,335,327.5z"></path> <path d="M215.5,384h-64c-4.142,0-7.5,3.358-7.5,7.5s3.358,7.5,7.5,7.5h64c4.142,0,7.5-3.358,7.5-7.5S219.642,384,215.5,384z"></path> <path d="M199.5,416h-80c-4.142,0-7.5,3.358-7.5,7.5s3.358,7.5,7.5,7.5h80c4.142,0,7.5-3.358,7.5-7.5S203.642,416,199.5,416z"></path> <path d="M263.5,384h-16c-4.142,0-7.5,3.358-7.5,7.5s3.358,7.5,7.5,7.5h16c4.142,0,7.5-3.358,7.5-7.5S267.642,384,263.5,384z"></path> </g> </g><g id="SVGRepo_iconCarrier"> <g> <path d="M436.166,74.834C387.908,26.577,323.747,0,255.5,0S123.092,26.577,74.834,74.834C26.577,123.092,0,187.253,0,255.5 c0,49.574,14.036,96.986,40.206,137.719c0.407,1.733,1.414,3.231,2.792,4.269c9.229,13.75,19.864,26.705,31.837,38.678 C123.092,484.423,187.253,511,255.5,511s132.408-26.577,180.666-74.834C484.423,387.908,511,323.747,511,255.5 S484.423,123.092,436.166,74.834z M85.441,85.441C130.865,40.016,191.26,15,255.5,15s124.635,25.016,170.059,70.441 C470.984,130.865,496,191.26,496,255.5c0,5.532-0.199,11.032-0.567,16.5H471.5c-3.069,0-10.464-2.097-25.508-16.139 c-11.081-10.342-22.934-23.934-33.393-35.927c-5.605-6.427-10.899-12.498-15.616-17.552c-16.508-17.687-32.718-6.697-42.403-0.131 c-3.731,2.529-7.929,5.375-10.581,5.714c-1.647-2.11-3.277-4.295-4.928-6.511c-6.8-9.132-13.832-18.574-23.768-24.419 c-6.068-3.569-13.977-10.489-21.625-17.181C279.05,147.054,266.417,136,255.5,136c-9.357,0-21.689,10.275-44.024,33.009 c-11.903,4.527-24.338,5.96-36.378,7.339c-13.295,1.522-25.854,2.959-35.456,8.721c-3.367,2.021-7.29,6.674-15.841,17.006 C103.575,226.512,65.928,272,31.5,272H15.567C15.199,266.532,15,261.032,15,255.5C15,191.26,40.016,130.865,85.441,85.441z M431.5,272c-16.695,0-26.958-10.714-38.84-23.12c-8.704-9.087-17.705-18.484-30.006-24.185c-2.783-1.29-5.327-2.985-7.719-4.964 c2.768-1.474,5.435-3.281,8.062-5.063c11.312-7.669,15.905-9.674,23.02-2.05c4.544,4.868,9.757,10.847,15.277,17.176 c14.817,16.99,28.216,31.877,40.326,42.207H431.5z M147.507,289.161c8.578-9.719,15.989-18.116,27.899-18.16 c0.402,0.156,4.579,2.104,10.654,16.517c1.242,2.947,2.329,5.871,3.235,8.483h-48.005 C143.459,293.747,145.513,291.42,147.507,289.161z M195.212,272c-6.003-10.744-12.494-16-19.712-16 c-14.621,0-24.468,7.52-32.656,16h-21.999c9.837-4.589,22.651-11.742,28.72-20.089c2.306-3.171,4.13-6.592,6.062-10.214 c3.848-7.218,7.828-14.681,15.929-19.889l3.341-2.146c7.839-5.03,12.57-8.066,20.962-14.06c3.368-2.406,8.667-7.85,17.743-17.264 c7.889-8.183,16.83-17.458,25.1-24.99c12.115-11.034,16.253-12.223,16.904-12.347c5.358,0.159,19.088,12.173,28.194,20.141 c8.544,7.477,16.615,14.539,23.896,18.822c7.322,4.307,13.161,12.148,19.343,20.449c8,10.743,16.272,21.851,29.306,27.891 c9.734,4.511,17.382,12.496,25.48,20.95c4.076,4.256,8.334,8.695,13.022,12.745H195.212z M75.839,270.788 c24.348-16.662,45.703-42.459,59.517-59.15c4.84-5.849,10.322-12.473,12.071-13.748c6.819-4.057,17.275-5.255,29.376-6.64 c4.74-0.542,9.714-1.113,14.816-1.902c-1.963,1.923-3.547,3.382-4.479,4.048c-8.088,5.777-12.441,8.571-20.345,13.642l-3.352,2.152 c-11.388,7.321-16.747,17.372-21.054,25.449c-1.679,3.148-3.264,6.122-4.956,8.449C129.857,253.508,99.016,266.77,75.839,270.788z M425.559,425.559C380.135,470.984,319.74,496,255.5,496s-124.635-25.016-170.059-70.441c-8.367-8.367-16.036-17.246-22.99-26.559 H127.5c4.142,0,7.5-3.358,7.5-7.5s-3.358-7.5-7.5-7.5H52.107c-18.609-29.329-30.548-62.294-35.061-97h112.069 c-5.309,5.275-10.717,9-17.615,9c-4.142,0-7.5,3.358-7.5,7.5s3.358,7.5,7.5,7.5h87.972c0.008,0,0.016,0.002,0.024,0.002 c0.01,0,0.02-0.002,0.03-0.002h7.975c4.142,0,7.5-3.358,7.5-7.5s-3.358-7.5-7.5-7.5h-2.4c-0.784-2.484-1.83-5.612-3.105-9h291.959 c-2.936,22.578-9.015,44.418-18.033,65H383.5c-4.142,0-7.5,3.358-7.5,7.5s3.358,7.5,7.5,7.5h85.206 C457.526,388.316,443.065,408.053,425.559,425.559z"></path> <path d="M95.5,127h104c4.142,0,7.5-3.358,7.5-7.5c0-19.575-15.925-35.5-35.5-35.5c-1.388,0-2.804,0.098-4.27,0.298 C158.476,76.337,147.359,72,135.5,72C109.309,72,88,93.308,88,119.5C88,123.642,91.358,127,95.5,127z M135.5,87 c9.053,0,17.492,3.73,23.764,10.503c1.856,2.006,4.656,2.842,7.31,2.183C168.46,99.218,170.025,99,171.5,99 c8.658,0,16.08,5.395,19.08,13h-86.706C107.268,97.683,120.16,87,135.5,87z"></path> <path d="M223.5,127h64h16h112c4.142,0,7.5-3.358,7.5-7.5c0-17.369-14.131-31.5-31.5-31.5c-1.387,0-2.789,0.108-4.222,0.327 C378.299,78.022,365.268,72,351.5,72c-11.924,0-23.291,4.524-31.956,12.428C310.868,76.454,299.583,72,287.5,72 c-11.859,0-22.976,4.337-31.73,12.298C254.304,84.098,252.888,84,251.5,84c-19.575,0-35.5,15.925-35.5,35.5 C216,123.642,219.358,127,223.5,127z M351.5,87c10.599,0,20.567,5.233,26.665,13.998c1.875,2.694,5.282,3.858,8.413,2.87 c1.877-0.592,3.441-0.868,4.923-0.868c6.399,0,11.959,3.662,14.695,9H303.5h-6.695c2.735-5.338,8.295-9,14.695-9 c1.482,0,3.046,0.276,4.923,0.868c3.13,0.987,6.539-0.176,8.413-2.87C330.933,92.233,340.901,87,351.5,87z M251.5,99 c1.475,0,3.04,0.218,4.926,0.686c2.652,0.658,5.453-0.178,7.31-2.183C270.008,90.73,278.447,87,287.5,87 c4.707,0,9.234,0.996,13.361,2.853c-9.846,3.544-17.429,11.861-19.951,22.147H232.42C235.42,104.395,242.842,99,251.5,99z"></path> <path d="M215.5,335h64c4.142,0,7.5-3.358,7.5-7.5s-3.358-7.5-7.5-7.5h-64c-4.142,0-7.5,3.358-7.5,7.5S211.358,335,215.5,335z"></path> <path d="M303.5,352h-120c-4.142,0-7.5,3.358-7.5,7.5s3.358,7.5,7.5,7.5h120c4.142,0,7.5-3.358,7.5-7.5S307.642,352,303.5,352z"></path> <path d="M359.5,352h-32c-4.142,0-7.5,3.358-7.5,7.5s3.358,7.5,7.5,7.5h32c4.142,0,7.5-3.358,7.5-7.5S363.642,352,359.5,352z"></path> <path d="M159.5,367c4.142,0,7.5-3.358,7.5-7.5s-3.358-7.5-7.5-7.5h-24c-4.142,0-7.5,3.358-7.5,7.5s3.358,7.5,7.5,7.5H159.5z"></path> <path d="M335,327.5c0-4.142-3.358-7.5-7.5-7.5h-16c-4.142,0-7.5,3.358-7.5,7.5s3.358,7.5,7.5,7.5h16 C331.642,335,335,331.642,335,327.5z"></path> <path d="M215.5,384h-64c-4.142,0-7.5,3.358-7.5,7.5s3.358,7.5,7.5,7.5h64c4.142,0,7.5-3.358,7.5-7.5S219.642,384,215.5,384z"></path> <path d="M199.5,416h-80c-4.142,0-7.5,3.358-7.5,7.5s3.358,7.5,7.5,7.5h80c4.142,0,7.5-3.358,7.5-7.5S203.642,416,199.5,416z"></path> <path d="M263.5,384h-16c-4.142,0-7.5,3.358-7.5,7.5s3.358,7.5,7.5,7.5h16c4.142,0,7.5-3.358,7.5-7.5S267.642,384,263.5,384z"></path> </g> </g></svg>